<svg xmlns="http://www.w3.org/2000/svg" xmlns:xlink="http://www.w3.org/1999/xlink" width="1080" zoomAndPan="magnify" viewBox="0 0 810 809.999993" height="1080" preserveAspectRatio="xMidYMid meet" version="1.0"><defs><g/><clipPath id="acb4f7dd03"><rect x="0" width="810" y="0" height="703"/></clipPath><clipPath id="639853bdf1"><path d="M 338 510 L 426 510 L 426 598 L 338 598 Z M 338 510 " clip-rule="nonzero"/></clipPath><clipPath id="b5f932f289"><path d="M 425.34375 597.546875 L 338.632812 597.507812 L 338.671875 510.796875 L 425.382812 510.835938 Z M 425.34375 597.546875 " clip-rule="nonzero"/></clipPath><clipPath id="821348a423"><path d="M 381.988281 597.527344 C 405.933594 597.539062 425.351562 578.136719 425.363281 554.191406 C 425.375 530.25 405.972656 510.828125 382.027344 510.816406 C 358.085938 510.804688 338.664062 530.207031 338.652344 554.152344 C 338.640625 578.097656 358.042969 597.515625 381.988281 597.527344 Z M 381.988281 597.527344 " clip-rule="nonzero"/></clipPath><clipPath id="919dc49bac"><path d="M 0.640625 0.71875 L 87.519531 0.71875 L 87.519531 87.601562 L 0.640625 87.601562 Z M 0.640625 0.71875 " clip-rule="nonzero"/></clipPath><clipPath id="a37dfe4c60"><path d="M 87.34375 87.546875 L 0.632812 87.507812 L 0.671875 0.796875 L 87.382812 0.835938 Z M 87.34375 87.546875 " clip-rule="nonzero"/></clipPath><clipPath id="b8bfe05572"><path d="M 43.988281 87.527344 C 67.933594 87.539062 87.351562 68.136719 87.363281 44.191406 C 87.375 20.25 67.972656 0.828125 44.027344 0.816406 C 20.085938 0.804688 0.664062 20.207031 0.652344 44.152344 C 0.640625 68.097656 20.042969 87.515625 43.988281 87.527344 Z M 43.988281 87.527344 " clip-rule="nonzero"/></clipPath><clipPath id="d1b07faef4"><rect x="0" width="88" y="0" height="88"/></clipPath><clipPath id="d8ea42c05b"><path d="M 425 368 L 513 368 L 513 455 L 425 455 Z M 425 368 " clip-rule="nonzero"/></clipPath><clipPath id="08f17ee114"><path d="M 512.121094 454.738281 L 425.410156 454.695312 L 425.449219 367.984375 L 512.160156 368.027344 Z M 512.121094 454.738281 " clip-rule="nonzero"/></clipPath><clipPath id="40dd731e38"><path d="M 468.765625 454.714844 C 492.710938 454.726562 512.128906 435.324219 512.140625 411.382812 C 512.152344 387.4375 492.75 368.015625 468.804688 368.003906 C 444.863281 367.996094 425.441406 387.394531 425.429688 411.339844 C 425.417969 435.285156 444.820312 454.707031 468.765625 454.714844 Z M 468.765625 454.714844 " clip-rule="nonzero"/></clipPath><clipPath id="386ba12440"><path d="M 0.28125 0 L 87.160156 0 L 87.160156 86.800781 L 0.28125 86.800781 Z M 0.28125 0 " clip-rule="nonzero"/></clipPath><clipPath id="87a5428e7a"><path d="M 87.121094 86.738281 L 0.410156 86.695312 L 0.449219 -0.015625 L 87.160156 0.0273438 Z M 87.121094 86.738281 " clip-rule="nonzero"/></clipPath><clipPath id="425f3d87cc"><path d="M 43.765625 86.714844 C 67.710938 86.726562 87.128906 67.324219 87.140625 43.382812 C 87.152344 19.4375 67.75 0.015625 43.804688 0.00390625 C 19.863281 -0.00390625 0.441406 19.394531 0.429688 43.339844 C 0.417969 67.285156 19.820312 86.707031 43.765625 86.714844 Z M 43.765625 86.714844 " clip-rule="nonzero"/></clipPath><clipPath id="09ccd03c78"><rect x="0" width="88" y="0" height="87"/></clipPath><clipPath id="39d96fc91e"><path d="M 512 212 L 599 212 L 599 300 L 512 300 Z M 512 212 " clip-rule="nonzero"/></clipPath><clipPath id="fbab3c2ae2"><path d="M 598.90625 299.277344 L 512.195312 299.234375 L 512.234375 212.523438 L 598.945312 212.566406 Z M 598.90625 299.277344 " clip-rule="nonzero"/></clipPath><clipPath id="a4265b7047"><path d="M 555.550781 299.253906 C 579.492188 299.265625 598.914062 279.863281 598.925781 255.921875 C 598.9375 231.976562 579.535156 212.554688 555.589844 212.542969 C 531.644531 212.535156 512.226562 231.933594 512.214844 255.878906 C 512.203125 279.824219 531.605469 299.246094 555.550781 299.253906 Z M 555.550781 299.253906 " clip-rule="nonzero"/></clipPath><clipPath id="90b0511fa7"><path d="M 0.160156 0.398438 L 87 0.398438 L 87 87.28125 L 0.160156 87.28125 Z M 0.160156 0.398438 " clip-rule="nonzero"/></clipPath><clipPath id="ad6f34e43f"><path d="M 86.90625 87.277344 L 0.195312 87.234375 L 0.234375 0.523438 L 86.945312 0.566406 Z M 86.90625 87.277344 " clip-rule="nonzero"/></clipPath><clipPath id="1e1399fba7"><path d="M 43.550781 87.253906 C 67.492188 87.265625 86.914062 67.863281 86.925781 43.921875 C 86.9375 19.976562 67.535156 0.554688 43.589844 0.542969 C 19.644531 0.535156 0.226562 19.933594 0.214844 43.878906 C 0.203125 67.824219 19.605469 87.246094 43.550781 87.253906 Z M 43.550781 87.253906 " clip-rule="nonzero"/></clipPath><clipPath id="50464176a1"><rect x="0" width="87" y="0" height="88"/></clipPath><clipPath id="23554e8aa4"><path d="M 338 212 L 426 212 L 426 300 L 338 300 Z M 338 212 " clip-rule="nonzero"/></clipPath><clipPath id="e630ee40f2"><path d="M 425.484375 299.195312 L 338.773438 299.15625 L 338.8125 212.445312 L 425.523438 212.484375 Z M 425.484375 299.195312 " clip-rule="nonzero"/></clipPath><clipPath id="8b7181d298"><path d="M 382.128906 299.175781 C 406.070312 299.1875 425.492188 279.785156 425.503906 255.839844 C 425.515625 231.894531 406.113281 212.476562 382.167969 212.464844 C 358.222656 212.453125 338.804688 231.855469 338.792969 255.800781 C 338.78125 279.742188 358.183594 299.164062 382.128906 299.175781 Z M 382.128906 299.175781 " clip-rule="nonzero"/></clipPath><clipPath id="446fe35cac"><path d="M 0.640625 0.398438 L 87.519531 0.398438 L 87.519531 87.28125 L 0.640625 87.28125 Z M 0.640625 0.398438 " clip-rule="nonzero"/></clipPath><clipPath id="5686e70343"><path d="M 87.484375 87.195312 L 0.773438 87.15625 L 0.8125 0.445312 L 87.523438 0.484375 Z M 87.484375 87.195312 " clip-rule="nonzero"/></clipPath><clipPath id="e835a3fcb3"><path d="M 44.128906 87.175781 C 68.070312 87.1875 87.492188 67.785156 87.503906 43.839844 C 87.515625 19.894531 68.113281 0.476562 44.167969 0.464844 C 20.222656 0.453125 0.804688 19.855469 0.792969 43.800781 C 0.78125 67.742188 20.183594 87.164062 44.128906 87.175781 Z M 44.128906 87.175781 " clip-rule="nonzero"/></clipPath><clipPath id="c6f6448cb9"><rect x="0" width="88" y="0" height="88"/></clipPath><clipPath id="a4081b82f3"><path d="M 211 316 L 361 316 L 361 467 L 211 467 Z M 211 316 " clip-rule="nonzero"/></clipPath><clipPath id="78d066c79a"><path d="M 360.734375 466.289062 L 210.734375 466.21875 L 210.804688 316.21875 L 360.804688 316.289062 Z M 360.734375 466.289062 " clip-rule="nonzero"/></clipPath><clipPath id="13ba0a6db5"><path d="M 360.734375 466.289062 L 211.050781 466.21875 L 211.121094 316.535156 L 360.804688 316.605469 Z M 360.734375 466.289062 " clip-rule="nonzero"/></clipPath><clipPath id="2f75877749"><path d="M 285.894531 466.253906 C 327.226562 466.273438 360.75 432.78125 360.769531 391.449219 C 360.789062 350.113281 327.296875 316.589844 285.960938 316.570312 C 244.628906 316.550781 211.105469 350.042969 211.085938 391.378906 C 211.066406 432.710938 244.558594 466.234375 285.894531 466.253906 Z M 285.894531 466.253906 " clip-rule="nonzero"/></clipPath></defs><g transform="matrix(1, 0, 0, 1, 0, 0.000000000000039746)"><g clip-path="url(#acb4f7dd03)"><g fill="#000000" fill-opacity="1"><g transform="translate(0.0000035, 560.750965)"><g><path d="M 165.8125 137.375 C 138.445312 137.375 117.382812 129.078125 102.625 112.484375 C 87.863281 95.890625 80.484375 72.617188 80.484375 42.671875 L 80.484375 -74.015625 C 80.484375 -99.234375 74.828125 -118.035156 63.515625 -130.421875 C 52.203125 -142.804688 34.691406 -149.539062 10.984375 -150.625 L 10.984375 -191.671875 C 34.472656 -192.535156 51.925781 -199.160156 63.34375 -211.546875 C 74.769531 -223.941406 80.484375 -242.742188 80.484375 -267.953125 L 80.484375 -384.96875 C 80.484375 -415.34375 87.644531 -438.71875 101.96875 -455.09375 C 116.300781 -471.476562 137.582031 -479.671875 165.8125 -479.671875 L 209.453125 -479.671875 L 209.453125 -437.96875 L 189.09375 -437.96875 C 169.476562 -437.96875 155.519531 -432.203125 147.21875 -420.671875 C 138.925781 -409.148438 134.78125 -391.753906 134.78125 -368.484375 L 134.78125 -253.40625 C 134.78125 -233.15625 129.070312 -215.648438 117.65625 -200.890625 C 106.238281 -186.128906 91.046875 -176.484375 72.078125 -171.953125 L 72.078125 -171.3125 C 91.253906 -166.78125 106.5 -157.1875 117.8125 -142.53125 C 129.125 -127.882812 134.78125 -110.109375 134.78125 -89.203125 L 134.78125 26.1875 C 134.78125 49.019531 138.925781 66.304688 147.21875 78.046875 C 155.519531 89.796875 169.476562 95.671875 189.09375 95.671875 L 209.453125 95.671875 L 209.453125 137.375 Z M 165.8125 137.375 "/></g></g></g><g fill="#000000" fill-opacity="1"><g transform="translate(221.085382, 560.750965)"><g/></g><g transform="translate(404.999973, 560.750965)"><g/></g></g><g fill="#000000" fill-opacity="1"><g transform="translate(588.914565, 560.750965)"><g><path d="M 30.390625 95.671875 C 49.992188 95.671875 64.050781 89.796875 72.5625 78.046875 C 81.070312 66.304688 85.328125 49.019531 85.328125 26.1875 L 85.328125 -89.203125 C 85.328125 -110.328125 90.929688 -128.210938 102.140625 -142.859375 C 113.347656 -157.515625 128.539062 -167 147.71875 -171.3125 L 147.71875 -171.953125 C 129.1875 -176.265625 114.15625 -185.691406 102.625 -200.234375 C 91.09375 -214.785156 85.328125 -232.507812 85.328125 -253.40625 L 85.328125 -368.484375 C 85.328125 -391.753906 81.070312 -409.148438 72.5625 -420.671875 C 64.050781 -432.203125 49.992188 -437.96875 30.390625 -437.96875 L 10.984375 -437.96875 L 10.984375 -479.671875 L 53.65625 -479.671875 C 81.882812 -479.671875 103.160156 -471.476562 117.484375 -455.09375 C 131.816406 -438.71875 138.984375 -415.34375 138.984375 -384.96875 L 138.984375 -267.953125 C 138.984375 -242.953125 144.691406 -224.203125 156.109375 -211.703125 C 167.535156 -199.210938 185.207031 -192.535156 209.125 -191.671875 L 209.125 -150.625 C 184.988281 -149.757812 167.265625 -143.078125 155.953125 -130.578125 C 144.640625 -118.085938 138.984375 -99.234375 138.984375 -74.015625 L 138.984375 42.671875 C 138.984375 72.398438 131.601562 95.613281 116.84375 112.3125 C 102.082031 129.019531 81.019531 137.375 53.65625 137.375 L 10.984375 137.375 L 10.984375 95.671875 Z M 30.390625 95.671875 "/></g></g></g></g></g><g clip-path="url(#639853bdf1)"><g clip-path="url(#b5f932f289)"><g clip-path="url(#821348a423)"><g transform="matrix(1, 0, 0, 1, 338, 510)"><g clip-path="url(#d1b07faef4)"><g clip-path="url(#919dc49bac)"><g clip-path="url(#a37dfe4c60)"><g clip-path="url(#b8bfe05572)"><path fill="#000000" d="M 87.34375 87.546875 L 0.632812 87.507812 L 0.671875 0.796875 L 87.382812 0.835938 Z M 87.34375 87.546875 " fill-opacity="1" fill-rule="nonzero"/></g></g></g></g></g></g></g></g><g clip-path="url(#d8ea42c05b)"><g clip-path="url(#08f17ee114)"><g clip-path="url(#40dd731e38)"><g transform="matrix(1, 0, 0, 1, 425, 368)"><g clip-path="url(#09ccd03c78)"><g clip-path="url(#386ba12440)"><g clip-path="url(#87a5428e7a)"><g clip-path="url(#425f3d87cc)"><path fill="#000000" d="M 87.121094 86.738281 L 0.410156 86.695312 L 0.449219 -0.015625 L 87.160156 0.0273438 Z M 87.121094 86.738281 " fill-opacity="1" fill-rule="nonzero"/></g></g></g></g></g></g></g></g><g clip-path="url(#39d96fc91e)"><g clip-path="url(#fbab3c2ae2)"><g clip-path="url(#a4265b7047)"><g transform="matrix(1, 0, 0, 1, 512, 212)"><g clip-path="url(#50464176a1)"><g clip-path="url(#90b0511fa7)"><g clip-path="url(#ad6f34e43f)"><g clip-path="url(#1e1399fba7)"><path fill="#000000" d="M 86.90625 87.277344 L 0.195312 87.234375 L 0.234375 0.523438 L 86.945312 0.566406 Z M 86.90625 87.277344 " fill-opacity="1" fill-rule="nonzero"/></g></g></g></g></g></g></g></g><g clip-path="url(#23554e8aa4)"><g clip-path="url(#e630ee40f2)"><g clip-path="url(#8b7181d298)"><g transform="matrix(1, 0, 0, 1, 338, 212)"><g clip-path="url(#c6f6448cb9)"><g clip-path="url(#446fe35cac)"><g clip-path="url(#5686e70343)"><g clip-path="url(#e835a3fcb3)"><path fill="#000000" d="M 87.484375 87.195312 L 0.773438 87.15625 L 0.8125 0.445312 L 87.523438 0.484375 Z M 87.484375 87.195312 " fill-opacity="1" fill-rule="nonzero"/></g></g></g></g></g></g></g></g><g clip-path="url(#a4081b82f3)"><g clip-path="url(#78d066c79a)"><g clip-path="url(#13ba0a6db5)"><g clip-path="url(#2f75877749)"><path stroke-linecap="butt" transform="matrix(-0.75, -0.0003496, 0.0003496, -0.75, 360.734546, 466.290285)" fill="none" stroke-linejoin="miter" d="M 99.786715 0.00199043 C 44.677325 0.00163711 0.000221131 44.678725 -0.00013219 99.788115 C -0.000483082 154.902714 44.676605 199.579817 99.791203 199.580168 C 154.900594 199.580521 199.577697 154.903434 199.578048 99.788835 C 199.578401 44.679445 154.901313 0.00234133 99.786715 0.00199043 Z M 99.786715 0.00199043 " stroke="#000000" stroke-width="64" stroke-opacity="1" stroke-miterlimit="4"/></g></g></g></g><path stroke-linecap="butt" transform="matrix(-0.379003, 0.647191, -0.647191, -0.379003, 476.875732, 410.731511)" fill="none" stroke-linejoin="miter" d="M -0.00159517 12.501989 L 171.152091 12.501101 " stroke="#000000" stroke-width="25" stroke-opacity="1" stroke-miterlimit="4"/><path stroke-linecap="butt" transform="matrix(-0.352009, 0.662261, -0.662261, -0.352009, 543.498312, 298.595484)" fill="none" stroke-linejoin="miter" d="M 0.000740943 12.501567 L 170.549022 12.496651 " stroke="#000000" stroke-width="25" stroke-opacity="1" stroke-miterlimit="4"/><path stroke-linecap="butt" transform="matrix(0.369493, 0.652667, -0.652667, 0.369493, 390.307191, 253.710096)" fill="none" stroke-linejoin="miter" d="M -0.00100625 12.500059 L 176.665928 12.499863 " stroke="#000000" stroke-width="25" stroke-opacity="1" stroke-miterlimit="4"/><path stroke-linecap="butt" transform="matrix(0.388866, 0.641314, -0.641314, 0.388866, 325.865524, 443.50423)" fill="none" stroke-linejoin="miter" d="M -0.00301602 12.500424 L 107.180302 12.500776 " stroke="#000000" stroke-width="25" stroke-opacity="1" stroke-miterlimit="4"/></svg>